<svg width="32" height="32" viewBox="0 0 32 32" fill="none" xmlns="http://www.w3.org/2000/svg">
<circle cx="16" cy="16" r="16" fill="white" fill-opacity="0.25"/>
<path d="M19 13.4H20.5C20.8978 13.4 21.2794 13.558 21.5607 13.8393C21.842 14.1206 22 14.5022 22 14.9V22.1C22 22.4978 21.842 22.8794 21.5607 23.1607C21.2794 23.442 20.8978 23.6 20.5 23.6H11.5C11.1022 23.6 10.7206 23.442 10.4393 23.1607C10.158 22.8794 10 22.4978 10 22.1V14.9C10 14.5022 10.158 14.1206 10.4393 13.8393C10.7206 13.558 11.1022 13.4 11.5 13.4H13M19 11L16 8M16 8L13 11M16 8V18.2375" stroke="white" stroke-width="1.5" stroke-linecap="round" stroke-linejoin="round"/>
</svg>
