<svg width="24" height="24" viewBox="0 0 24 24" fill="none" xmlns="http://www.w3.org/2000/svg">
<path d="M12 13.6C12.1582 13.6 12.3129 13.5531 12.4445 13.4652C12.576 13.3773 12.6786 13.2523 12.7391 13.1061C12.7997 12.96 12.8155 12.7991 12.7846 12.6439C12.7538 12.4887 12.6776 12.3462 12.5657 12.2343C12.4538 12.1224 12.3113 12.0462 12.1561 12.0154C12.0009 11.9845 11.84 12.0003 11.6939 12.0609C11.5477 12.1214 11.4227 12.224 11.3348 12.3555C11.2469 12.4871 11.2 12.6418 11.2 12.8C11.2 13.0122 11.2843 13.2157 11.4343 13.3657C11.5843 13.5157 11.7878 13.6 12 13.6ZM16 13.6C16.1582 13.6 16.3129 13.5531 16.4445 13.4652C16.576 13.3773 16.6786 13.2523 16.7391 13.1061C16.7997 12.96 16.8155 12.7991 16.7846 12.6439C16.7538 12.4887 16.6776 12.3462 16.5657 12.2343C16.4538 12.1224 16.3113 12.0462 16.1561 12.0154C16.0009 11.9845 15.84 12.0003 15.6939 12.0609C15.5477 12.1214 15.4227 12.224 15.3348 12.3555C15.2469 12.4871 15.2 12.6418 15.2 12.8C15.2 13.0122 15.2843 13.2157 15.4343 13.3657C15.5843 13.5157 15.7878 13.6 16 13.6ZM12 16.8C12.1582 16.8 12.3129 16.7531 12.4445 16.6652C12.576 16.5773 12.6786 16.4523 12.7391 16.3061C12.7997 16.16 12.8155 15.9991 12.7846 15.8439C12.7538 15.6887 12.6776 15.5462 12.5657 15.4343C12.4538 15.3224 12.3113 15.2462 12.1561 15.2154C12.0009 15.1845 11.84 15.2003 11.6939 15.2609C11.5477 15.3214 11.4227 15.424 11.3348 15.5555C11.2469 15.6871 11.2 15.8418 11.2 16C11.2 16.2122 11.2843 16.4157 11.4343 16.5657C11.5843 16.7157 11.7878 16.8 12 16.8ZM16 16.8C16.1582 16.8 16.3129 16.7531 16.4445 16.6652C16.576 16.5773 16.6786 16.4523 16.7391 16.3061C16.7997 16.16 16.8155 15.9991 16.7846 15.8439C16.7538 15.6887 16.6776 15.5462 16.5657 15.4343C16.4538 15.3224 16.3113 15.2462 16.1561 15.2154C16.0009 15.1845 15.84 15.2003 15.6939 15.2609C15.5477 15.3214 15.4227 15.424 15.3348 15.5555C15.2469 15.6871 15.2 15.8418 15.2 16C15.2 16.2122 15.2843 16.4157 15.4343 16.5657C15.5843 16.7157 15.7878 16.8 16 16.8ZM8 13.6C8.15823 13.6 8.3129 13.5531 8.44446 13.4652C8.57602 13.3773 8.67855 13.2523 8.7391 13.1061C8.79965 12.96 8.8155 12.7991 8.78463 12.6439C8.75376 12.4887 8.67757 12.3462 8.56569 12.2343C8.4538 12.1224 8.31126 12.0462 8.15607 12.0154C8.00089 11.9845 7.84003 12.0003 7.69385 12.0609C7.54767 12.1214 7.42273 12.224 7.33482 12.3555C7.24692 12.4871 7.2 12.6418 7.2 12.8C7.2 13.0122 7.28429 13.2157 7.43431 13.3657C7.58434 13.5157 7.78783 13.6 8 13.6ZM17.6 5.6H16.8V4.8C16.8 4.58783 16.7157 4.38434 16.5657 4.23431C16.4157 4.08429 16.2122 4 16 4C15.7878 4 15.5843 4.08429 15.4343 4.23431C15.2843 4.38434 15.2 4.58783 15.2 4.8V5.6H8.8V4.8C8.8 4.58783 8.71571 4.38434 8.56569 4.23431C8.41566 4.08429 8.21217 4 8 4C7.78783 4 7.58434 4.08429 7.43431 4.23431C7.28429 4.38434 7.2 4.58783 7.2 4.8V5.6H6.4C5.76348 5.6 5.15303 5.85286 4.70294 6.30294C4.25286 6.75303 4 7.36348 4 8V17.6C4 18.2365 4.25286 18.847 4.70294 19.2971C5.15303 19.7471 5.76348 20 6.4 20H17.6C18.2365 20 18.847 19.7471 19.2971 19.2971C19.7471 18.847 20 18.2365 20 17.6V8C20 7.36348 19.7471 6.75303 19.2971 6.30294C18.847 5.85286 18.2365 5.6 17.6 5.6ZM18.4 17.6C18.4 17.8122 18.3157 18.0157 18.1657 18.1657C18.0157 18.3157 17.8122 18.4 17.6 18.4H6.4C6.18783 18.4 5.98434 18.3157 5.83431 18.1657C5.68429 18.0157 5.6 17.8122 5.6 17.6V10.4H18.4V17.6ZM18.4 8.8H5.6V8C5.6 7.78783 5.68429 7.58434 5.83431 7.43431C5.98434 7.28429 6.18783 7.2 6.4 7.2H17.6C17.8122 7.2 18.0157 7.28429 18.1657 7.43431C18.3157 7.58434 18.4 7.78783 18.4 8V8.8ZM8 16.8C8.15823 16.8 8.3129 16.7531 8.44446 16.6652C8.57602 16.5773 8.67855 16.4523 8.7391 16.3061C8.79965 16.16 8.8155 15.9991 8.78463 15.8439C8.75376 15.6887 8.67757 15.5462 8.56569 15.4343C8.4538 15.3224 8.31126 15.2462 8.15607 15.2154C8.00089 15.1845 7.84003 15.2003 7.69385 15.2609C7.54767 15.3214 7.42273 15.424 7.33482 15.5555C7.24692 15.6871 7.2 15.8418 7.2 16C7.2 16.2122 7.28429 16.4157 7.43431 16.5657C7.58434 16.7157 7.78783 16.8 8 16.8Z" fill="#333333"/>
</svg>
