<svg width="24" height="24" viewBox="0 0 24 24" fill="none" xmlns="http://www.w3.org/2000/svg">
<path d="M16.577 8.52553L6.658 5.21853C6.358 5.11853 6.208 5.06853 6.104 5.14353C6 5.21853 6 5.37653 6 5.69353V12.9995L16.577 9.47353C17.165 9.27753 17.459 9.17953 17.459 8.99953C17.459 8.81953 17.165 8.72153 16.577 8.52553Z" fill="#333333"/>
<path d="M6 12.9995V5.69353C6 5.37653 6 5.21853 6.104 5.14353C6.208 5.06853 6.358 5.11853 6.658 5.21853L16.577 8.52553C17.165 8.72153 17.459 8.81953 17.459 8.99953C17.459 9.17953 17.165 9.27753 16.577 9.47353L6 12.9995ZM6 12.9995V18.9995" stroke="#333333" stroke-width="2" stroke-linecap="round"/>
</svg>
