<svg width="24" height="37" viewBox="0 0 24 37" fill="none" xmlns="http://www.w3.org/2000/svg">
<path d="M19.5002 9.52327C19.4987 10.6258 19.4904 11.5618 19.4282 12.3305C19.3554 13.223 19.2062 13.9685 18.8732 14.5873C18.7277 14.8584 18.5432 15.1068 18.3257 15.3245C17.7009 15.9493 16.9059 16.232 15.8979 16.367C14.9132 16.4998 13.6502 16.4998 12.0399 16.4998H11.9604C10.3494 16.4998 9.08794 16.4998 8.10244 16.367C7.09519 16.232 6.29944 15.9493 5.67544 15.3245C5.12194 14.771 4.83544 14.0825 4.68394 13.2283C4.53394 12.3883 4.50694 11.3443 4.50169 10.0475C4.50019 9.71752 4.49969 9.36827 4.50019 8.99977V8.95927C4.50019 7.34827 4.50019 6.08677 4.63294 5.10127C4.76794 4.09402 5.05069 3.29827 5.67544 2.67427C6.30019 2.05027 7.09519 1.76677 8.10244 1.63177C8.97844 1.51402 10.1049 1.50052 11.4767 1.49902C11.6155 1.49902 11.7487 1.55418 11.8469 1.65235C11.945 1.75053 12.0002 1.88368 12.0002 2.02252C12.0002 2.16136 11.945 2.29452 11.8469 2.39269C11.7487 2.49087 11.6155 2.54602 11.4767 2.54602C10.0854 2.54752 9.05119 2.55952 8.24194 2.66827C7.35019 2.78827 6.81244 3.01627 6.41494 3.41377C6.01744 3.81127 5.79019 4.34977 5.67019 5.24227C5.54794 6.14977 5.54644 7.34077 5.54644 8.99977V9.58777L6.24544 8.97727C6.55183 8.7092 6.94865 8.56757 7.35555 8.58108C7.76244 8.59459 8.149 8.76222 8.43694 9.05002L11.4294 12.0425C11.6616 12.2748 11.9683 12.4178 12.2955 12.4462C12.6227 12.4746 12.9495 12.3866 13.2182 12.1978L13.4267 12.0515C13.8143 11.7791 14.2828 11.6463 14.7557 11.6747C15.2286 11.7032 15.6778 11.8913 16.0299 12.2083L18.0047 13.9858C18.2034 13.568 18.3219 13.0198 18.3849 12.2458C18.4442 11.5168 18.4524 10.6318 18.4532 9.52327C18.4532 9.38443 18.5083 9.25128 18.6065 9.1531C18.7047 9.05493 18.8378 8.99977 18.9767 8.99977C19.1155 8.99977 19.2487 9.05493 19.3469 9.1531C19.445 9.25128 19.5002 9.38443 19.5002 9.52327Z" fill="#C8C8C8"/>
<path fill-rule="evenodd" clip-rule="evenodd" d="M16.125 8.25C14.5343 8.25 13.7385 8.25 13.2443 7.75575C12.75 7.2615 12.75 6.46575 12.75 4.875C12.75 3.28425 12.75 2.4885 13.2443 1.99425C13.7385 1.5 14.5343 1.5 16.125 1.5C17.7158 1.5 18.5115 1.5 19.0057 1.99425C19.5 2.4885 19.5 3.28425 19.5 4.875C19.5 6.46575 19.5 7.2615 19.0057 7.75575C18.5115 8.25 17.7158 8.25 16.125 8.25ZM16.6875 3.375C16.6875 3.22582 16.6282 3.08274 16.5227 2.97725C16.4173 2.87176 16.2742 2.8125 16.125 2.8125C15.9758 2.8125 15.8327 2.87176 15.7273 2.97725C15.6218 3.08274 15.5625 3.22582 15.5625 3.375V4.3125H14.625C14.4758 4.3125 14.3327 4.37176 14.2273 4.47725C14.1218 4.58274 14.0625 4.72582 14.0625 4.875C14.0625 5.02418 14.1218 5.16726 14.2273 5.27275C14.3327 5.37824 14.4758 5.4375 14.625 5.4375H15.5625V6.375C15.5625 6.52418 15.6218 6.66726 15.7273 6.77275C15.8327 6.87824 15.9758 6.9375 16.125 6.9375C16.2742 6.9375 16.4173 6.87824 16.5227 6.77275C16.6282 6.66726 16.6875 6.52418 16.6875 6.375V5.4375H17.625C17.7742 5.4375 17.9173 5.37824 18.0227 5.27275C18.1282 5.16726 18.1875 5.02418 18.1875 4.875C18.1875 4.72582 18.1282 4.58274 18.0227 4.47725C17.9173 4.37176 17.7742 4.3125 17.625 4.3125H16.6875V3.375Z" fill="#C8C8C8"/>
<path d="M6.67773 26.75C6.67773 27.9609 7.55664 29.1035 8.82617 29.5625L8.39648 30.1582C7.44434 29.7773 6.6875 29.0205 6.31641 28.0781C5.94531 29.1279 5.1543 29.9629 4.12891 30.373L3.71875 29.748C5.01758 29.2695 5.91602 28.0586 5.92578 26.7207V25.6465H6.67773V26.75ZM10.9062 25.1191V31.623H10.1348V27.8047H8.20117V27.1602H10.1348V25.1191H10.9062ZM11.1016 32.9609V33.6055H5.29102V30.8809H6.0625V32.9609H11.1016ZM16.1113 25.7441V26.3887H13.4746V27.4727H16.0137V28.0781H13.4746V29.2793C14.7393 29.2744 15.5303 29.2305 16.4629 29.0449L16.541 29.6797C15.5254 29.875 14.7051 29.9238 13.2891 29.9238H12.7422V25.7441H16.1113ZM19.7246 25.1191V30.3828H18.9922V28.0098H17.7715V30.3242H17.0586V25.2852H17.7715V27.3848H18.9922V25.1191H19.7246ZM19.7246 30.832V33.791H18.9727V31.457H13.875V30.832H19.7246Z" fill="#C8C8C8"/>
</svg>
