<svg width="24" height="24" viewBox="0 0 24 24" fill="none" xmlns="http://www.w3.org/2000/svg">
<path d="M5.54529 7.05176C5.54529 6.38014 5.8121 5.73603 6.287 5.26112C6.76191 4.78621 7.40603 4.51941 8.07765 4.51941C8.74927 4.51941 9.39338 4.78621 9.86829 5.26112C10.3432 5.73603 10.61 6.38014 10.61 7.05176C10.61 7.72339 10.3432 8.3675 9.86829 8.84241C9.39338 9.31732 8.74927 9.58412 8.07765 9.58412C7.40603 9.58412 6.76191 9.31732 6.287 8.84241C5.8121 8.3675 5.54529 7.72339 5.54529 7.05176ZM8.07765 3C7.00305 3 5.97247 3.42688 5.21262 4.18673C4.45276 4.94659 4.02588 5.97717 4.02588 7.05176C4.02588 8.12636 4.45276 9.15694 5.21262 9.91679C5.97247 10.6766 7.00305 11.1035 8.07765 11.1035C9.15224 11.1035 10.1828 10.6766 10.9427 9.91679C11.7025 9.15694 12.1294 8.12636 12.1294 7.05176C12.1294 5.97717 11.7025 4.94659 10.9427 4.18673C10.1828 3.42688 9.15224 3 8.07765 3ZM15.6747 8.06471C15.6747 7.66173 15.8348 7.27526 16.1197 6.99032C16.4047 6.70537 16.7911 6.54529 17.1941 6.54529C17.5971 6.54529 17.9836 6.70537 18.2685 6.99032C18.5534 7.27526 18.7135 7.66173 18.7135 8.06471C18.7135 8.46768 18.5534 8.85415 18.2685 9.13909C17.9836 9.42404 17.5971 9.58412 17.1941 9.58412C16.7911 9.58412 16.4047 9.42404 16.1197 9.13909C15.8348 8.85415 15.6747 8.46768 15.6747 8.06471ZM17.1941 5.02588C16.3882 5.02588 15.6152 5.34604 15.0453 5.91593C14.4755 6.48582 14.1553 7.25876 14.1553 8.06471C14.1553 8.87065 14.4755 9.64359 15.0453 10.2135C15.6152 10.7834 16.3882 11.1035 17.1941 11.1035C18.0001 11.1035 18.773 10.7834 19.3429 10.2135C19.9128 9.64359 20.2329 8.87065 20.2329 8.06471C20.2329 7.25876 19.9128 6.48582 19.3429 5.91593C18.773 5.34604 18.0001 5.02588 17.1941 5.02588ZM14.4065 18.2326C15.1186 18.5213 16.0313 18.7006 17.1951 18.7006C19.5067 18.7006 20.8275 17.9946 21.5477 17.1224C21.8972 16.699 22.0745 16.2716 22.1656 15.9444C22.2178 15.7548 22.2494 15.5603 22.2598 15.364V15.3366C22.2596 14.7513 22.0269 14.1901 21.6131 13.7762C21.1992 13.3623 20.6379 13.1297 20.0526 13.1294H14.3376C14.3093 13.1294 14.2816 13.1301 14.2546 13.1314C14.6537 13.5467 14.9434 14.0684 15.0811 14.6488H20.0526C20.4295 14.6488 20.7354 14.9517 20.7404 15.3265L20.7374 15.3589C20.7333 15.3981 20.7208 15.4588 20.6999 15.5412C20.6373 15.7665 20.5268 15.9755 20.3758 16.1541C20.0212 16.5856 19.1886 17.1812 17.1951 17.1812C16.2024 17.1812 15.4974 17.0333 14.997 16.8317C14.8877 17.2369 14.7073 17.7261 14.4065 18.2326ZM4.27912 13.1294C3.67466 13.1294 3.09496 13.3695 2.66754 13.7969C2.24012 14.2244 2 14.8041 2 15.4085V15.6901C2.00106 15.7606 2.00579 15.8309 2.01418 15.9008C2.09838 16.6544 2.36924 17.3751 2.80225 17.9976C3.63084 19.1807 5.21305 20.22 8.07765 20.22C10.9422 20.22 12.5245 19.1817 13.353 17.9966C13.7861 17.3741 14.0569 16.6534 14.1411 15.8998C14.1483 15.8301 14.153 15.7602 14.1553 15.6901V15.4085C14.1553 14.8041 13.9152 14.2244 13.4878 13.7969C13.0603 13.3695 12.4806 13.1294 11.8762 13.1294H4.27912ZM3.51941 15.6689V15.4085C3.51941 15.207 3.59945 15.0138 3.74192 14.8713C3.8844 14.7289 4.07763 14.6488 4.27912 14.6488H11.8762C12.0777 14.6488 12.2709 14.7289 12.4134 14.8713C12.5558 15.0138 12.6359 15.207 12.6359 15.4085V15.6689L12.6288 15.7499C12.5705 16.2441 12.3917 16.7165 12.1081 17.1255C11.6088 17.8396 10.531 18.7006 8.07765 18.7006C5.6243 18.7006 4.54653 17.8396 4.04614 17.1255C3.76293 16.7164 3.58449 16.244 3.5265 15.7499L3.51941 15.6689Z" fill="#333333"/>
</svg>
