<svg width="20" height="20" viewBox="0 0 20 20" fill="none" xmlns="http://www.w3.org/2000/svg">
<path d="M14.876 10.8105H10.8135V14.873C10.8135 15.0885 10.7279 15.2952 10.5755 15.4476C10.4231 15.5999 10.2165 15.6855 10.001 15.6855C9.78549 15.6855 9.57883 15.5999 9.42645 15.4476C9.27408 15.2952 9.18848 15.0885 9.18848 14.873V10.8105H5.12598C4.91049 10.8105 4.70383 10.7249 4.55145 10.5726C4.39908 10.4202 4.31348 10.2135 4.31348 9.99805C4.31348 9.78256 4.39908 9.5759 4.55145 9.42352C4.70383 9.27115 4.91049 9.18555 5.12598 9.18555H9.18848V5.12305C9.18848 4.90756 9.27408 4.7009 9.42645 4.54852C9.57883 4.39615 9.78549 4.31055 10.001 4.31055C10.2165 4.31055 10.4231 4.39615 10.5755 4.54852C10.7279 4.7009 10.8135 4.90756 10.8135 5.12305V9.18555H14.876C15.0915 9.18555 15.2981 9.27115 15.4505 9.42352C15.6029 9.5759 15.6885 9.78256 15.6885 9.99805C15.6885 10.2135 15.6029 10.4202 15.4505 10.5726C15.2981 10.7249 15.0915 10.8105 14.876 10.8105Z" fill="white"/>
</svg>
