<svg width="28" height="28" viewBox="0 0 28 28" fill="none" xmlns="http://www.w3.org/2000/svg">
<path d="M20.75 15.1228H15.125V20.7478C15.125 21.0462 15.0065 21.3323 14.7955 21.5433C14.5845 21.7543 14.2984 21.8728 14 21.8728C13.7016 21.8728 13.4155 21.7543 13.2045 21.5433C12.9935 21.3323 12.875 21.0462 12.875 20.7478V15.1228H7.25C6.95163 15.1228 6.66548 15.0043 6.45451 14.7933C6.24353 14.5823 6.125 14.2962 6.125 13.9978C6.125 13.6994 6.24353 13.4133 6.45451 13.2023C6.66548 12.9913 6.95163 12.8728 7.25 12.8728H12.875V7.2478C12.875 6.94943 12.9935 6.66329 13.2045 6.45231C13.4155 6.24133 13.7016 6.1228 14 6.1228C14.2984 6.1228 14.5845 6.24133 14.7955 6.45231C15.0065 6.66329 15.125 6.94943 15.125 7.2478V12.8728H20.75C21.0484 12.8728 21.3345 12.9913 21.5455 13.2023C21.7565 13.4133 21.875 13.6994 21.875 13.9978C21.875 14.2962 21.7565 14.5823 21.5455 14.7933C21.3345 15.0043 21.0484 15.1228 20.75 15.1228Z" fill="white"/>
</svg>
