<svg width="17" height="18" viewBox="0 0 17 18" fill="none" xmlns="http://www.w3.org/2000/svg">
<path d="M8.49997 9.78125C11.2922 9.78125 14.1574 11.5967 14.343 15.2439C14.3502 15.3845 14.3012 15.5222 14.2069 15.6267C14.1126 15.7312 13.9807 15.794 13.8401 15.8014C12.3668 15.8765 5.54339 15.9225 3.16056 15.8014C3.01985 15.7942 2.88775 15.7315 2.7933 15.6269C2.69885 15.5224 2.6498 15.3846 2.65693 15.2439C2.84252 11.5974 5.70772 9.78125 8.49997 9.78125ZM8.49997 3.40625C7.79549 3.40625 7.11986 3.6861 6.62172 4.18425C6.12358 4.68239 5.84372 5.35802 5.84372 6.0625C5.84372 6.76698 6.12358 7.44261 6.62172 7.94075C7.11986 8.4389 7.79549 8.71875 8.49997 8.71875C9.20445 8.71875 9.88008 8.4389 10.3782 7.94075C10.8764 7.44261 11.1562 6.76698 11.1562 6.0625C11.1562 5.35802 10.8764 4.68239 10.3782 4.18425C9.88008 3.6861 9.20445 3.40625 8.49997 3.40625Z" fill="#A1A1A1"/>
</svg>
