<svg width="25" height="24" viewBox="0 0 25 24" fill="none" xmlns="http://www.w3.org/2000/svg">
<path d="M9.09717 11.3565C9.09717 12.0882 9.38784 12.79 9.90523 13.3074C10.4226 13.8248 11.1244 14.1154 11.8561 14.1154C12.5878 14.1154 13.2895 13.8248 13.8069 13.3074C14.3243 12.79 14.6149 12.0882 14.6149 11.3565C14.6149 10.6248 14.3243 9.92311 13.8069 9.40571C13.2895 8.88832 12.5878 8.59766 11.8561 8.59766C11.1244 8.59766 10.4226 8.88832 9.90523 9.40571C9.38784 9.92311 9.09717 10.6248 9.09717 11.3565Z" stroke="#606060" stroke-width="1.83926" stroke-linecap="round" stroke-linejoin="round"/>
<path d="M12.5864 20.8484C12.2482 20.9944 11.8738 21.0355 11.512 20.9663C11.1501 20.8971 10.8173 20.7208 10.5568 20.4603L6.65389 16.5583C5.76988 15.674 5.12585 14.5789 4.78261 13.3766C4.43937 12.1742 4.40825 10.9042 4.69218 9.68645C4.97611 8.46871 5.56573 7.34343 6.40536 6.41687C7.24499 5.4903 8.30693 4.79303 9.49089 4.39088C10.6749 3.98873 11.9418 3.89498 13.1721 4.11848C14.4023 4.34198 15.5553 4.87536 16.5222 5.66825C17.489 6.46114 18.2379 7.48738 18.6979 8.65006C19.158 9.81274 19.3142 11.0735 19.1516 12.3133" stroke="#606060" stroke-width="1.83926" stroke-linecap="round" stroke-linejoin="round"/>
<path d="M18.577 19.6325L17.2334 15.4748C17.1869 15.3438 17.1003 15.2307 16.9859 15.1516C16.8715 15.0726 16.7351 15.0315 16.5961 15.0343C16.4571 15.0315 16.3207 15.0726 16.2063 15.1516C16.0919 15.2307 16.0053 15.3438 15.9588 15.4748L14.6152 19.6325M21.0526 15.0343V19.6325M15.11 18.253H18.0813" stroke="#606060" stroke-width="1.37944" stroke-linecap="round" stroke-linejoin="round"/>
</svg>
