<svg width="14" height="14" viewBox="0 0 14 14" fill="none" xmlns="http://www.w3.org/2000/svg">
<path fill-rule="evenodd" clip-rule="evenodd" d="M3.22806 2.20051C3.09335 2.0704 2.91292 1.9984 2.72563 2.00003C2.53835 2.00165 2.3592 2.07678 2.22676 2.20921C2.09433 2.34164 2.01921 2.5208 2.01758 2.70808C2.01595 2.89536 2.08795 3.07579 2.21806 3.21051L5.99878 6.99122L2.21806 10.7719C2.14984 10.8378 2.09543 10.9166 2.05799 11.0038C2.02056 11.0909 2.00085 11.1847 2.00003 11.2795C1.9992 11.3743 2.01728 11.4684 2.05319 11.5562C2.08911 11.644 2.14214 11.7237 2.20921 11.7908C2.27628 11.8579 2.35603 11.9109 2.44381 11.9468C2.53159 11.9827 2.62565 12.0008 2.72049 12C2.81533 11.9991 2.90906 11.9794 2.99621 11.942C3.08335 11.9046 3.16217 11.8502 3.22806 11.7819L7.00878 8.00122L10.7895 11.7819C10.9242 11.912 11.1046 11.984 11.2919 11.9824C11.4792 11.9808 11.6584 11.9057 11.7908 11.7732C11.9232 11.6408 11.9983 11.4616 12 11.2744C12.0016 11.0871 11.9296 10.9067 11.7995 10.7719L8.01878 6.99122L11.7995 3.21051C11.9296 3.07579 12.0016 2.89536 12 2.70808C11.9983 2.5208 11.9232 2.34164 11.7908 2.20921C11.6584 2.07678 11.4792 2.00165 11.2919 2.00003C11.1046 1.9984 10.9242 2.0704 10.7895 2.20051L7.00878 5.98122L3.22806 2.20051Z" fill="#606060"/>
</svg>
