<svg width="24" height="24" viewBox="0 0 24 24" fill="none" xmlns="http://www.w3.org/2000/svg">
<path d="M17.2832 10.5538C17.2832 11.1921 16.7426 11.7102 16.0757 11.7102C15.4089 11.7102 14.8691 11.1921 14.8691 10.5538C14.8691 9.91458 15.4097 9.39648 16.0757 9.39648C16.7417 9.39648 17.2832 9.91458 17.2832 10.5538Z" fill="#606060"/>
<path fill-rule="evenodd" clip-rule="evenodd" d="M16.87 6.62264C15.9532 6.50415 14.782 6.50415 13.3039 6.50501H9.99467C8.51564 6.50501 7.34453 6.50501 6.42857 6.62264C5.4858 6.74373 4.72121 7.00062 4.11922 7.57752C3.51723 8.15443 3.25083 8.88616 3.12282 9.79087C3 10.6688 3 11.7915 3 13.2091V13.2956C3 14.714 3 15.8359 3.12282 16.7146C3.24996 17.6193 3.51723 18.3511 4.11922 18.928C4.72121 19.5049 5.4858 19.7609 6.42857 19.8828C7.3454 20.0005 8.51651 20.0005 9.99467 20.0005H13.3039C14.7829 20.0005 15.954 20.0005 16.87 19.8828C17.8127 19.7618 18.5773 19.5049 19.1793 18.928C19.7813 18.3511 20.0486 17.6185 20.1757 16.7146C20.2985 15.8359 20.2985 14.7132 20.2985 13.2964V13.2099C20.2985 11.7915 20.2985 10.6696 20.1757 9.79087C20.0486 8.88616 19.7813 8.15443 19.1793 7.57752C18.5773 7.00062 17.8127 6.7446 16.87 6.62264ZM6.58945 7.76954C5.77988 7.87333 5.31368 8.0688 4.97203 8.39574C4.63212 8.72182 4.428 9.16899 4.31901 9.94483C4.23252 10.5676 4.21263 11.3451 4.2083 12.3623L4.61482 12.0207C5.58786 11.2059 7.05305 11.2526 7.96641 12.1279L11.4175 15.4363C11.5885 15.5975 11.8092 15.696 12.0435 15.7155C12.2778 15.7349 12.5118 15.6743 12.7071 15.5435L12.9475 15.3818C13.5116 15.0046 14.1832 14.8216 14.8607 14.8606C15.5381 14.8997 16.1843 15.1585 16.7013 15.598L18.7832 17.3945C18.868 17.1661 18.9328 16.8937 18.9795 16.5607C19.0902 15.7684 19.092 14.7236 19.092 13.2532C19.092 11.7828 19.0902 10.7371 18.9795 9.94483C18.8706 9.16899 18.6664 8.72182 18.3256 8.39574C17.9857 8.0688 17.5187 7.87333 16.7091 7.76954C15.8822 7.66229 14.7924 7.66142 13.258 7.66142H10.0405C8.50613 7.66142 7.41632 7.66229 6.58945 7.76954Z" fill="#606060"/>
<path d="M16.05 4.09514C15.3061 4 14.359 4 13.1784 4H10.5058C9.32604 4 8.37894 4 7.63597 4.09514C6.86618 4.19461 6.22354 4.40479 5.7141 4.89088C5.43294 5.16075 5.21854 5.49242 5.08789 5.85959C5.52381 5.66066 6.01682 5.54303 6.57038 5.47038C7.50882 5.34929 8.70675 5.34929 10.2204 5.34929H13.6066C15.1193 5.34929 16.3172 5.34929 17.2557 5.47038C17.7392 5.53352 18.176 5.63125 18.5704 5.78694C18.4378 5.44865 18.2333 5.1432 17.971 4.89174C17.4615 4.40479 16.8198 4.19461 16.05 4.09601" fill="#606060"/>
</svg>
