<svg width="24" height="24" viewBox="0 0 24 24" fill="none" xmlns="http://www.w3.org/2000/svg">
<path d="M6 13.6C6 14.0243 6.16857 14.4313 6.46863 14.7314C6.76869 15.0314 7.17565 15.2 7.6 15.2H9.2V17.6C9.2 18.9232 10.2768 20 11.6 20C12.9232 20 14 18.9232 14 17.6V15.2H15.6C16.0243 15.2 16.4313 15.0314 16.7314 14.7314C17.0314 14.4313 17.2 14.0243 17.2 13.6V12H6V13.6ZM16.4 4H15.6V7.2C15.6 7.41217 15.5157 7.61566 15.3657 7.76569C15.2157 7.91571 15.0122 8 14.8 8C14.5878 8 14.3843 7.91571 14.2343 7.76569C14.0843 7.61566 14 7.41217 14 7.2V4H12.4V6.4C12.4 6.61217 12.3157 6.81566 12.1657 6.96569C12.0157 7.11571 11.8122 7.2 11.6 7.2C11.3878 7.2 11.1843 7.11571 11.0343 6.96569C10.8843 6.81566 10.8 6.61217 10.8 6.4V4H6.8C6.58783 4 6.38434 4.08429 6.23431 4.23431C6.08429 4.38434 6 4.58783 6 4.8V10.4H17.2V4.8C17.2 4.58783 17.1157 4.38434 16.9657 4.23431C16.8157 4.08429 16.6122 4 16.4 4Z" fill="#606060"/>
</svg>
