<svg width="25" height="24" viewBox="0 0 25 24" fill="none" xmlns="http://www.w3.org/2000/svg">
<path d="M13.3998 5.6998C13.3998 5.46111 13.305 5.23219 13.1362 5.06341C12.9674 4.89463 12.7385 4.7998 12.4998 4.7998C12.2611 4.7998 12.0322 4.89463 11.8634 5.06341C11.6946 5.23219 11.5998 5.46111 11.5998 5.6998V11.0998H6.1998C5.96111 11.0998 5.73219 11.1946 5.56341 11.3634C5.39463 11.5322 5.2998 11.7611 5.2998 11.9998C5.2998 12.2385 5.39463 12.4674 5.56341 12.6362C5.73219 12.805 5.96111 12.8998 6.1998 12.8998H11.5998V18.2998C11.5998 18.5385 11.6946 18.7674 11.8634 18.9362C12.0322 19.105 12.2611 19.1998 12.4998 19.1998C12.7385 19.1998 12.9674 19.105 13.1362 18.9362C13.305 18.7674 13.3998 18.5385 13.3998 18.2998V12.8998H18.7998C19.0385 12.8998 19.2674 12.805 19.4362 12.6362C19.605 12.4674 19.6998 12.2385 19.6998 11.9998C19.6998 11.7611 19.605 11.5322 19.4362 11.3634C19.2674 11.1946 19.0385 11.0998 18.7998 11.0998H13.3998V5.6998Z" fill="#606060"/>
</svg>
