<svg width="46" height="46" viewBox="0 0 46 46" fill="none" xmlns="http://www.w3.org/2000/svg">
<rect width="46" height="46" rx="23" fill="#71C9B0"/>
<path d="M29.75 24.123H24.125V29.748C24.125 30.0464 24.0065 30.3326 23.7955 30.5435C23.5845 30.7545 23.2984 30.873 23 30.873C22.7016 30.873 22.4155 30.7545 22.2045 30.5435C21.9935 30.3326 21.875 30.0464 21.875 29.748V24.123H16.25C15.9516 24.123 15.6655 24.0045 15.4545 23.7935C15.2435 23.5826 15.125 23.2964 15.125 22.998C15.125 22.6997 15.2435 22.4135 15.4545 22.2026C15.6655 21.9916 15.9516 21.873 16.25 21.873H21.875V16.248C21.875 15.9497 21.9935 15.6635 22.2045 15.4526C22.4155 15.2416 22.7016 15.123 23 15.123C23.2984 15.123 23.5845 15.2416 23.7955 15.4526C24.0065 15.6635 24.125 15.9497 24.125 16.248V21.873H29.75C30.0484 21.873 30.3345 21.9916 30.5455 22.2026C30.7565 22.4135 30.875 22.6997 30.875 22.998C30.875 23.2964 30.7565 23.5826 30.5455 23.7935C30.3345 24.0045 30.0484 24.123 29.75 24.123Z" fill="white"/>
</svg>
