<svg width="17" height="17" viewBox="0 0 17 17" fill="none" xmlns="http://www.w3.org/2000/svg">
<path d="M8.50008 2.125C5.89696 2.125 3.54175 4.12073 3.54175 7.20729C3.54175 9.17823 5.06024 11.4962 8.09102 14.1676C8.32654 14.3721 8.67982 14.3721 8.91534 14.1676C11.9399 11.4962 13.4584 9.17823 13.4584 7.20729C13.4584 4.12073 11.1032 2.125 8.50008 2.125ZM8.50008 8.32292C7.81831 8.32292 7.2605 7.7651 7.2605 7.08333C7.2605 6.40156 7.81831 5.84375 8.50008 5.84375C9.18185 5.84375 9.73967 6.40156 9.73967 7.08333C9.73967 7.7651 9.18185 8.32292 8.50008 8.32292Z" fill="#71C9B0"/>
</svg>
