<svg width="20" height="20" viewBox="0 0 20 20" fill="none" xmlns="http://www.w3.org/2000/svg">
<path d="M15.7372 16.6666C16.1205 16.6666 16.4408 16.5383 16.698 16.2816C16.9552 16.025 17.0836 15.7047 17.083 15.3208V5.92912C17.083 5.699 16.8965 5.51245 16.6663 5.51245C16.4362 5.51245 16.2497 5.699 16.2497 5.92912V15.3208C16.2497 15.4486 16.1963 15.5661 16.0897 15.6733C15.983 15.7805 15.8655 15.8338 15.7372 15.8333H6.34551C6.11539 15.8333 5.92884 16.0198 5.92884 16.25C5.92884 16.4801 6.11539 16.6666 6.34551 16.6666H15.7372Z" fill="#F8F8F8"/>
<path d="M3.33301 6.80004C3.33301 5.58671 3.33301 4.98004 3.51669 4.51637C3.67825 4.10871 3.93604 3.77726 4.25311 3.56954C4.61373 3.33337 5.08557 3.33337 6.02926 3.33337H11.4701C12.4138 3.33337 12.8856 3.33337 13.2462 3.56954C13.5631 3.77739 13.8207 4.10882 13.9821 4.51637C14.1663 4.98004 14.1663 5.58671 14.1663 6.80004V10.7C14.1663 11.9134 14.1663 12.52 13.9827 12.9837C13.8211 13.3914 13.5633 13.7228 13.2462 13.9305C12.8856 14.1667 12.4138 14.1667 11.4701 14.1667H6.02926C5.08557 14.1667 4.61373 14.1667 4.25311 13.9305C3.93624 13.7227 3.67867 13.3913 3.51725 12.9837C3.33301 12.52 3.33301 11.9134 3.33301 10.7V6.80004Z" fill="#F8F8F8" stroke="#F8F8F8" stroke-width="0.833333" stroke-linecap="round" stroke-linejoin="round"/>
</svg>
