<svg width="90" height="106" viewBox="0 0 90 106" fill="none" xmlns="http://www.w3.org/2000/svg">
<g filter="url(#filter0_d_805_1690)">
<rect x="4" y="2" width="80" height="80" rx="40" fill="#F7FAF9" shape-rendering="crispEdges"/>
<path d="M51.5 30.3333V27V30.3333ZM36.5 30.3333C36.5 30.3333 36.5 28.3017 36.5 27V30.3333ZM29.4167 35.3333H58.5833H29.4167ZM29 38.74C29 35.215 29 33.4517 29.7267 32.105C30.3837 30.9038 31.4033 29.9408 32.64 29.3533C34.0667 28.6667 35.9333 28.6667 39.6667 28.6667H48.3333C52.0667 28.6667 53.9333 28.6667 55.36 29.3533C56.615 29.9567 57.6333 30.92 58.2733 32.1033C59 33.4533 59 35.2167 59 38.7417V46.9283C59 50.4533 59 52.2167 58.2733 53.5633C57.6163 54.7645 56.5967 55.7275 55.36 56.315C53.9333 57 52.0667 57 48.3333 57H39.6667C35.9333 57 34.0667 57 32.64 56.3133C31.4036 55.7263 30.384 54.7639 29.7267 53.5633C29 52.2133 29 50.45 29 46.925V38.74Z" fill="#71C9B0"/>
<path d="M51.5 30.3333V27M36.5 30.3333C36.5 30.3333 36.5 28.3017 36.5 27M29.4167 35.3333H58.5833M29 38.74C29 35.215 29 33.4517 29.7267 32.105C30.3837 30.9038 31.4033 29.9408 32.64 29.3533C34.0667 28.6667 35.9333 28.6667 39.6667 28.6667H48.3333C52.0667 28.6667 53.9333 28.6667 55.36 29.3533C56.615 29.9567 57.6333 30.92 58.2733 32.1033C59 33.4533 59 35.2167 59 38.7417V46.9283C59 50.4533 59 52.2167 58.2733 53.5633C57.6163 54.7645 56.5967 55.7275 55.36 56.315C53.9333 57 52.0667 57 48.3333 57H39.6667C35.9333 57 34.0667 57 32.64 56.3133C31.4036 55.7263 30.384 54.7639 29.7267 53.5633C29 52.2133 29 50.45 29 46.925V38.74Z" stroke="#67BEA5" stroke-linecap="round" stroke-linejoin="round"/>
<path d="M43.9941 50.1172C42.1777 50.1172 40.8887 49.1328 40.8535 47.7031H42.3887C42.4355 48.3828 43.1152 48.8281 43.9941 48.8281C44.9316 48.8281 45.5996 48.3125 45.5996 47.5625C45.5996 46.8008 44.9434 46.25 43.8418 46.25H43.0801V45.0781H43.8418C44.7441 45.0781 45.377 44.5742 45.3652 43.8359C45.377 43.1211 44.8379 42.6406 44.0059 42.6406C43.209 42.6406 42.5176 43.0859 42.4941 43.8008H41.0293C41.0645 42.3711 42.3535 41.3984 44.0176 41.3984C45.7402 41.3984 46.8535 42.4531 46.8418 43.7539C46.8535 44.7031 46.2207 45.3945 45.2949 45.582V45.6523C46.4902 45.8164 47.1699 46.5781 47.1582 47.6445C47.1699 49.0742 45.834 50.1172 43.9941 50.1172Z" fill="white"/>
</g>
<path d="M25.6016 103V102.062L28.543 99.0977C29.4688 98.125 29.9375 97.5859 29.9375 96.8477C29.9375 96.0156 29.2578 95.4766 28.3672 95.4766C27.4297 95.4766 26.8203 96.0742 26.8203 96.9766H25.6016C25.5898 95.4297 26.7734 94.3984 28.3906 94.3984C30.0312 94.3984 31.1562 95.4297 31.168 96.8125C31.1562 97.7617 30.7109 98.5117 29.1172 100.082L27.3945 101.828V101.898H31.3086V103H25.6016ZM40.625 93.4961V96.1797H42.1484V97.0938H40.625V99.8242H39.5117V93.4961H40.625ZM40.625 100.352V103.996H39.5117V101.254H33.6875V100.352H40.625ZM33.875 94.1523V95.7227H36.6289V94.1523H37.7305V99.1562H32.7852V94.1523H33.875ZM33.875 98.2656H36.6289V96.6016H33.875V98.2656ZM49.0508 103.117C47.293 103.117 46.0391 102.168 45.9922 100.785H47.3047C47.3516 101.535 48.0898 102.004 49.0391 102.004C50.0586 102.004 50.8086 101.441 50.8086 100.621C50.8086 99.7891 50.1055 99.1797 48.8984 99.1797H48.1719V98.125H48.8984C49.8594 98.125 50.5391 97.5859 50.5391 96.7773C50.5391 96.0039 49.9648 95.4766 49.0625 95.4766C48.207 95.4766 47.457 95.9453 47.4219 96.7188H46.1797C46.2148 95.3359 47.4922 94.3984 49.0742 94.3984C50.7383 94.3984 51.793 95.4531 51.7812 96.707C51.793 97.668 51.1953 98.3711 50.2812 98.5938V98.6523C51.4414 98.8164 52.1094 99.5898 52.1094 100.668C52.1094 102.086 50.8086 103.117 49.0508 103.117ZM56.1406 93.8477C57.7227 93.8594 58.8828 94.832 58.8945 96.2031C58.8828 97.5859 57.7227 98.5469 56.1406 98.5469C54.5469 98.5469 53.375 97.5859 53.375 96.2031C53.375 94.832 54.5469 93.8594 56.1406 93.8477ZM56.1406 94.7852C55.168 94.7734 54.4531 95.3477 54.4648 96.2031C54.4531 97.0703 55.168 97.6445 56.1406 97.6445C57.1016 97.6445 57.8164 97.0703 57.8164 96.2031C57.8164 95.3477 57.1016 94.7734 56.1406 94.7852ZM61.8711 93.4961V98.8398H60.7578V93.4961H61.8711ZM61.8711 99.3203V101.969H56.082V102.977H62.2227V103.867H55.0039V101.137H60.7695V100.211H54.9688V99.3203H61.8711Z" fill="#606060"/>
<defs>
<filter id="filter0_d_805_1690" x="0" y="0" width="90" height="90" filterUnits="userSpaceOnUse" color-interpolation-filters="sRGB">
<feFlood flood-opacity="0" result="BackgroundImageFix"/>
<feColorMatrix in="SourceAlpha" type="matrix" values="0 0 0 0 0 0 0 0 0 0 0 0 0 0 0 0 0 0 127 0" result="hardAlpha"/>
<feOffset dx="1" dy="3"/>
<feGaussianBlur stdDeviation="2.5"/>
<feComposite in2="hardAlpha" operator="out"/>
<feColorMatrix type="matrix" values="0 0 0 0 0 0 0 0 0 0 0 0 0 0 0 0 0 0 0.08 0"/>
<feBlend mode="normal" in2="BackgroundImageFix" result="effect1_dropShadow_805_1690"/>
<feBlend mode="normal" in="SourceGraphic" in2="effect1_dropShadow_805_1690" result="shape"/>
</filter>
</defs>
</svg>
