<svg width="80" height="104" viewBox="0 0 80 104" fill="none" xmlns="http://www.w3.org/2000/svg">
<rect width="80" height="80" rx="40" fill="#F7FAF9"/>
<path d="M47.5 28.3333V25M32.5 28.3333V25M25.4167 33.3333H54.5833M25 36.74C25 33.215 25 31.4517 25.7267 30.105C26.3837 28.9038 27.4033 27.9408 28.64 27.3533C30.0667 26.6667 31.9333 26.6667 35.6667 26.6667H44.3333C48.0667 26.6667 49.9333 26.6667 51.36 27.3533C52.615 27.9567 53.6333 28.92 54.2733 30.1033C55 31.4533 55 33.2167 55 36.7417V44.9283C55 48.4533 55 50.2167 54.2733 51.5633C53.6163 52.7645 52.5967 53.7275 51.36 54.315C49.9333 55 48.0667 55 44.3333 55H35.6667C31.9333 55 30.0667 55 28.64 54.3133C27.4036 53.7263 26.384 52.7639 25.7267 51.5633C25 50.2133 25 48.45 25 44.925V36.74Z" stroke="#71C9B0" stroke-width="1.5" stroke-linecap="round" stroke-linejoin="round"/>
<path d="M41.3945 39.5156V48H39.8594V41.0039H39.8125L37.832 42.2695V40.875L39.9297 39.5156H41.3945Z" fill="#71C9B0"/>
<path d="M27.9062 91.4961V94.1562H29.418V95.0703H27.9062V97.6953H26.7812V91.4961H27.9062ZM24.5078 97.8945C26.6523 97.8945 27.9883 98.6445 27.9883 99.9336C27.9883 101.223 26.6523 101.984 24.5078 101.973C22.3398 101.984 20.9805 101.223 20.9805 99.9336C20.9805 98.6445 22.3398 97.8945 24.5078 97.8945ZM24.5078 98.7969C22.9844 98.7852 22.0703 99.207 22.082 99.9336C22.0703 100.66 22.9844 101.082 24.5078 101.082C25.9961 101.082 26.9102 100.66 26.9219 99.9336C26.9102 99.207 25.9961 98.7852 24.5078 98.7969ZM24.7773 92.2695V93.1719H21.1914V96.0312C23.2598 96.0254 24.4258 95.9609 25.75 95.6914L25.8555 96.5938C24.4492 96.8867 23.1953 96.9336 20.9219 96.9336H20.0898V92.2695H24.7773ZM32.9922 91.8477C34.5742 91.8594 35.7344 92.832 35.7461 94.2031C35.7344 95.5859 34.5742 96.5469 32.9922 96.5469C31.3984 96.5469 30.2266 95.5859 30.2266 94.2031C30.2266 92.832 31.3984 91.8594 32.9922 91.8477ZM32.9922 92.7852C32.0195 92.7734 31.3047 93.3477 31.3164 94.2031C31.3047 95.0703 32.0195 95.6445 32.9922 95.6445C33.9531 95.6445 34.668 95.0703 34.668 94.2031C34.668 93.3477 33.9531 92.7734 32.9922 92.7852ZM38.7227 91.4961V96.8398H37.6094V91.4961H38.7227ZM38.7227 97.3203V99.9688H32.9336V100.977H39.0742V101.867H31.8555V99.1367H37.6211V98.2109H31.8203V97.3203H38.7227ZM49.082 91.4961V101.996H47.9688V91.4961H49.082ZM44.3359 94.8711C44.3359 96.5469 45.4492 98.2578 47.0781 98.9492L46.4688 99.8047C45.2617 99.2773 44.2949 98.1875 43.8086 96.8633C43.334 98.2637 42.3848 99.4297 41.1602 99.9805L40.5391 99.125C42.168 98.3984 43.2461 96.6289 43.2461 94.8711V94.1797H40.8555V93.2891H43.2344V91.707H44.3359V93.2891H46.6914V94.1797H44.3359V94.8711ZM59.4883 91.4961V101.996H58.3633V91.4961H59.4883ZM56.3594 92.6211C56.3594 95.6914 55.0469 98.3633 51.4492 100.086L50.8633 99.1836C53.6582 97.8535 55.0176 95.9609 55.2344 93.5117H51.3672V92.6211H56.3594Z" fill="#606060"/>
</svg>
