<svg width="90" height="106" viewBox="0 0 90 106" fill="none" xmlns="http://www.w3.org/2000/svg">
<g filter="url(#filter0_d_805_1677)">
<rect x="4" y="2" width="80" height="80" rx="40" fill="#F7FAF9" shape-rendering="crispEdges"/>
<path d="M51.5 30.3333V27V30.3333ZM36.5 30.3333C36.5 30.3333 36.5 28.3017 36.5 27V30.3333ZM29.4167 35.3333H58.5833H29.4167ZM29 38.74C29 35.215 29 33.4517 29.7267 32.105C30.3837 30.9038 31.4033 29.9408 32.64 29.3533C34.0667 28.6667 35.9333 28.6667 39.6667 28.6667H48.3333C52.0667 28.6667 53.9333 28.6667 55.36 29.3533C56.615 29.9567 57.6333 30.92 58.2733 32.1033C59 33.4533 59 35.2167 59 38.7417V46.9283C59 50.4533 59 52.2167 58.2733 53.5633C57.6163 54.7645 56.5967 55.7275 55.36 56.315C53.9333 57 52.0667 57 48.3333 57H39.6667C35.9333 57 34.0667 57 32.64 56.3133C31.4036 55.7263 30.384 54.7639 29.7267 53.5633C29 52.2133 29 50.45 29 46.925V38.74Z" fill="#71C9B0"/>
<path d="M51.5 30.3333V27M36.5 30.3333C36.5 30.3333 36.5 28.3017 36.5 27M29.4167 35.3333H58.5833M29 38.74C29 35.215 29 33.4517 29.7267 32.105C30.3837 30.9038 31.4033 29.9408 32.64 29.3533C34.0667 28.6667 35.9333 28.6667 39.6667 28.6667H48.3333C52.0667 28.6667 53.9333 28.6667 55.36 29.3533C56.615 29.9567 57.6333 30.92 58.2733 32.1033C59 33.4533 59 35.2167 59 38.7417V46.9283C59 50.4533 59 52.2167 58.2733 53.5633C57.6163 54.7645 56.5967 55.7275 55.36 56.315C53.9333 57 52.0667 57 48.3333 57H39.6667C35.9333 57 34.0667 57 32.64 56.3133C31.4036 55.7263 30.384 54.7639 29.7267 53.5633C29 52.2133 29 50.45 29 46.925V38.74Z" stroke="#67BEA5" stroke-linecap="round" stroke-linejoin="round"/>
<path d="M41.0879 50V48.8984L44.0879 46.0039C44.9434 45.1484 45.3887 44.6445 45.3887 43.9297C45.3887 43.1445 44.7676 42.6406 43.9355 42.6406C43.0566 42.6406 42.4941 43.1914 42.5059 44.0469H41.0527C41.041 42.4414 42.248 41.3984 43.9473 41.3984C45.6816 41.3984 46.8535 42.4297 46.8535 43.8594C46.8535 44.8203 46.3848 45.5938 44.7207 47.1641L43.209 48.6641V48.7227H46.9824V50H41.0879Z" fill="white"/>
</g>
<path d="M29.8789 94.5156V103H28.5781V95.8047H28.5312L26.5039 97.1289V95.8984L28.6133 94.5156H29.8789ZM39.9219 93.4961V96.1797H41.4453V97.0938H39.9219V99.8242H38.8086V93.4961H39.9219ZM39.9219 100.352V103.996H38.8086V101.254H32.9844V100.352H39.9219ZM33.1719 94.1523V95.7227H35.9258V94.1523H37.0273V99.1562H32.082V94.1523H33.1719ZM33.1719 98.2656H35.9258V96.6016H33.1719V98.2656ZM45.3359 103V102.062L48.2773 99.0977C49.2031 98.125 49.6719 97.5859 49.6719 96.8477C49.6719 96.0156 48.9922 95.4766 48.1016 95.4766C47.1641 95.4766 46.5547 96.0742 46.5547 96.9766H45.3359C45.3242 95.4297 46.5078 94.3984 48.125 94.3984C49.7656 94.3984 50.8906 95.4297 50.9023 96.8125C50.8906 97.7617 50.4453 98.5117 48.8516 100.082L47.1289 101.828V101.898H51.043V103H45.3359ZM55.0859 93.8477C56.668 93.8594 57.8281 94.832 57.8398 96.2031C57.8281 97.5859 56.668 98.5469 55.0859 98.5469C53.4922 98.5469 52.3203 97.5859 52.3203 96.2031C52.3203 94.832 53.4922 93.8594 55.0859 93.8477ZM55.0859 94.7852C54.1133 94.7734 53.3984 95.3477 53.4102 96.2031C53.3984 97.0703 54.1133 97.6445 55.0859 97.6445C56.0469 97.6445 56.7617 97.0703 56.7617 96.2031C56.7617 95.3477 56.0469 94.7734 55.0859 94.7852ZM60.8164 93.4961V98.8398H59.7031V93.4961H60.8164ZM60.8164 99.3203V101.969H55.0273V102.977H61.168V103.867H53.9492V101.137H59.7148V100.211H53.9141V99.3203H60.8164Z" fill="#606060"/>
<defs>
<filter id="filter0_d_805_1677" x="0" y="0" width="90" height="90" filterUnits="userSpaceOnUse" color-interpolation-filters="sRGB">
<feFlood flood-opacity="0" result="BackgroundImageFix"/>
<feColorMatrix in="SourceAlpha" type="matrix" values="0 0 0 0 0 0 0 0 0 0 0 0 0 0 0 0 0 0 127 0" result="hardAlpha"/>
<feOffset dx="1" dy="3"/>
<feGaussianBlur stdDeviation="2.5"/>
<feComposite in2="hardAlpha" operator="out"/>
<feColorMatrix type="matrix" values="0 0 0 0 0 0 0 0 0 0 0 0 0 0 0 0 0 0 0.08 0"/>
<feBlend mode="normal" in2="BackgroundImageFix" result="effect1_dropShadow_805_1677"/>
<feBlend mode="normal" in="SourceGraphic" in2="effect1_dropShadow_805_1677" result="shape"/>
</filter>
</defs>
</svg>
