<svg width="80" height="104" viewBox="0 0 80 104" fill="none" xmlns="http://www.w3.org/2000/svg">
<rect width="80" height="80" rx="40" fill="#F7FAF9"/>
<path d="M47.5 28.3333V25M32.5 28.3333V25M25.4167 33.3333H54.5833M25 36.74C25 33.215 25 31.4517 25.7267 30.105C26.3837 28.9038 27.4033 27.9408 28.64 27.3533C30.0667 26.6667 31.9333 26.6667 35.6667 26.6667H44.3333C48.0667 26.6667 49.9333 26.6667 51.36 27.3533C52.615 27.9567 53.6333 28.92 54.2733 30.1033C55 31.4533 55 33.2167 55 36.7417V44.9283C55 48.4533 55 50.2167 54.2733 51.5633C53.6163 52.7645 52.5967 53.7275 51.36 54.315C49.9333 55 48.0667 55 44.3333 55H35.6667C31.9333 55 30.0667 55 28.64 54.3133C27.4036 53.7263 26.384 52.7639 25.7267 51.5633C25 50.2133 25 48.45 25 44.925V36.74Z" stroke="#71C9B0" stroke-width="1.5" stroke-linecap="round" stroke-linejoin="round"/>
<path d="M39.9941 48.1172C38.1777 48.1172 36.8887 47.1328 36.8535 45.7031H38.3887C38.4355 46.3828 39.1152 46.8281 39.9941 46.8281C40.9316 46.8281 41.5996 46.3125 41.5996 45.5625C41.5996 44.8008 40.9434 44.25 39.8418 44.25H39.0801V43.0781H39.8418C40.7441 43.0781 41.377 42.5742 41.3652 41.8359C41.377 41.1211 40.8379 40.6406 40.0059 40.6406C39.209 40.6406 38.5176 41.0859 38.4941 41.8008H37.0293C37.0645 40.3711 38.3535 39.3984 40.0176 39.3984C41.7402 39.3984 42.8535 40.4531 42.8418 41.7539C42.8535 42.7031 42.2207 43.3945 41.2949 43.582V43.6523C42.4902 43.8164 43.1699 44.5781 43.1582 45.6445C43.1699 47.0742 41.834 48.1172 39.9941 48.1172Z" fill="#71C9B0"/>
<path d="M21.6016 101V100.062L24.543 97.0977C25.4688 96.125 25.9375 95.5859 25.9375 94.8477C25.9375 94.0156 25.2578 93.4766 24.3672 93.4766C23.4297 93.4766 22.8203 94.0742 22.8203 94.9766H21.6016C21.5898 93.4297 22.7734 92.3984 24.3906 92.3984C26.0312 92.3984 27.1562 93.4297 27.168 94.8125C27.1562 95.7617 26.7109 96.5117 25.1172 98.082L23.3945 99.8281V99.8984H27.3086V101H21.6016ZM36.625 91.4961V94.1797H38.1484V95.0938H36.625V97.8242H35.5117V91.4961H36.625ZM36.625 98.3516V101.996H35.5117V99.2539H29.6875V98.3516H36.625ZM29.875 92.1523V93.7227H32.6289V92.1523H33.7305V97.1562H28.7852V92.1523H29.875ZM29.875 96.2656H32.6289V94.6016H29.875V96.2656ZM45.0508 101.117C43.293 101.117 42.0391 100.168 41.9922 98.7852H43.3047C43.3516 99.5352 44.0898 100.004 45.0391 100.004C46.0586 100.004 46.8086 99.4414 46.8086 98.6211C46.8086 97.7891 46.1055 97.1797 44.8984 97.1797H44.1719V96.125H44.8984C45.8594 96.125 46.5391 95.5859 46.5391 94.7773C46.5391 94.0039 45.9648 93.4766 45.0625 93.4766C44.207 93.4766 43.457 93.9453 43.4219 94.7188H42.1797C42.2148 93.3359 43.4922 92.3984 45.0742 92.3984C46.7383 92.3984 47.793 93.4531 47.7812 94.707C47.793 95.668 47.1953 96.3711 46.2812 96.5938V96.6523C47.4414 96.8164 48.1094 97.5898 48.1094 98.668C48.1094 100.086 46.8086 101.117 45.0508 101.117ZM52.1406 91.8477C53.7227 91.8594 54.8828 92.832 54.8945 94.2031C54.8828 95.5859 53.7227 96.5469 52.1406 96.5469C50.5469 96.5469 49.375 95.5859 49.375 94.2031C49.375 92.832 50.5469 91.8594 52.1406 91.8477ZM52.1406 92.7852C51.168 92.7734 50.4531 93.3477 50.4648 94.2031C50.4531 95.0703 51.168 95.6445 52.1406 95.6445C53.1016 95.6445 53.8164 95.0703 53.8164 94.2031C53.8164 93.3477 53.1016 92.7734 52.1406 92.7852ZM57.8711 91.4961V96.8398H56.7578V91.4961H57.8711ZM57.8711 97.3203V99.9688H52.082V100.977H58.2227V101.867H51.0039V99.1367H56.7695V98.2109H50.9688V97.3203H57.8711Z" fill="#606060"/>
</svg>
