<svg width="80" height="104" viewBox="0 0 80 104" fill="none" xmlns="http://www.w3.org/2000/svg">
<rect width="80" height="80" rx="40" fill="#F7FAF9"/>
<path d="M47.5 28.3333V25M32.5 28.3333V25M25.4167 33.3333H54.5833M25 36.74C25 33.215 25 31.4517 25.7267 30.105C26.3837 28.9038 27.4033 27.9408 28.64 27.3533C30.0667 26.6667 31.9333 26.6667 35.6667 26.6667H44.3333C48.0667 26.6667 49.9333 26.6667 51.36 27.3533C52.615 27.9567 53.6333 28.92 54.2733 30.1033C55 31.4533 55 33.2167 55 36.7417V44.9283C55 48.4533 55 50.2167 54.2733 51.5633C53.6163 52.7645 52.5967 53.7275 51.36 54.315C49.9333 55 48.0667 55 44.3333 55H35.6667C31.9333 55 30.0667 55 28.64 54.3133C27.4036 53.7263 26.384 52.7639 25.7267 51.5633C25 50.2133 25 48.45 25 44.925V36.74Z" stroke="#71C9B0" stroke-width="1.5" stroke-linecap="round" stroke-linejoin="round"/>
<path d="M37.0879 48V46.8984L40.0879 44.0039C40.9434 43.1484 41.3887 42.6445 41.3887 41.9297C41.3887 41.1445 40.7676 40.6406 39.9355 40.6406C39.0566 40.6406 38.4941 41.1914 38.5059 42.0469H37.0527C37.041 40.4414 38.248 39.3984 39.9473 39.3984C41.6816 39.3984 42.8535 40.4297 42.8535 41.8594C42.8535 42.8203 42.3848 43.5938 40.7207 45.1641L39.209 46.6641V46.7227H42.9824V48H37.0879Z" fill="#71C9B0"/>
<path d="M25.8789 92.5156V101H24.5781V93.8047H24.5312L22.5039 95.1289V93.8984L24.6133 92.5156H25.8789ZM35.9219 91.4961V94.1797H37.4453V95.0938H35.9219V97.8242H34.8086V91.4961H35.9219ZM35.9219 98.3516V101.996H34.8086V99.2539H28.9844V98.3516H35.9219ZM29.1719 92.1523V93.7227H31.9258V92.1523H33.0273V97.1562H28.082V92.1523H29.1719ZM29.1719 96.2656H31.9258V94.6016H29.1719V96.2656ZM41.3359 101V100.062L44.2773 97.0977C45.2031 96.125 45.6719 95.5859 45.6719 94.8477C45.6719 94.0156 44.9922 93.4766 44.1016 93.4766C43.1641 93.4766 42.5547 94.0742 42.5547 94.9766H41.3359C41.3242 93.4297 42.5078 92.3984 44.125 92.3984C45.7656 92.3984 46.8906 93.4297 46.9023 94.8125C46.8906 95.7617 46.4453 96.5117 44.8516 98.082L43.1289 99.8281V99.8984H47.043V101H41.3359ZM51.0859 91.8477C52.668 91.8594 53.8281 92.832 53.8398 94.2031C53.8281 95.5859 52.668 96.5469 51.0859 96.5469C49.4922 96.5469 48.3203 95.5859 48.3203 94.2031C48.3203 92.832 49.4922 91.8594 51.0859 91.8477ZM51.0859 92.7852C50.1133 92.7734 49.3984 93.3477 49.4102 94.2031C49.3984 95.0703 50.1133 95.6445 51.0859 95.6445C52.0469 95.6445 52.7617 95.0703 52.7617 94.2031C52.7617 93.3477 52.0469 92.7734 51.0859 92.7852ZM56.8164 91.4961V96.8398H55.7031V91.4961H56.8164ZM56.8164 97.3203V99.9688H51.0273V100.977H57.168V101.867H49.9492V99.1367H55.7148V98.2109H49.9141V97.3203H56.8164Z" fill="#606060"/>
</svg>
