<svg width="90" height="106" viewBox="0 0 90 106" fill="none" xmlns="http://www.w3.org/2000/svg">
<g filter="url(#filter0_d_805_1664)">
<rect x="4" y="2" width="80" height="80" rx="40" fill="#F7FAF9" shape-rendering="crispEdges"/>
<path d="M51.5 30.3333V27V30.3333ZM36.5 30.3333C36.5 30.3333 36.5 28.3017 36.5 27V30.3333ZM29.4167 35.3333H58.5833H29.4167ZM29 38.74C29 35.215 29 33.4517 29.7267 32.105C30.3837 30.9038 31.4033 29.9408 32.64 29.3533C34.0667 28.6667 35.9333 28.6667 39.6667 28.6667H48.3333C52.0667 28.6667 53.9333 28.6667 55.36 29.3533C56.615 29.9567 57.6333 30.92 58.2733 32.1033C59 33.4533 59 35.2167 59 38.7417V46.9283C59 50.4533 59 52.2167 58.2733 53.5633C57.6163 54.7645 56.5967 55.7275 55.36 56.315C53.9333 57 52.0667 57 48.3333 57H39.6667C35.9333 57 34.0667 57 32.64 56.3133C31.4036 55.7263 30.384 54.7639 29.7267 53.5633C29 52.2133 29 50.45 29 46.925V38.74Z" fill="#71C9B0"/>
<path d="M51.5 30.3333V27M36.5 30.3333C36.5 30.3333 36.5 28.3017 36.5 27M29.4167 35.3333H58.5833M29 38.74C29 35.215 29 33.4517 29.7267 32.105C30.3837 30.9038 31.4033 29.9408 32.64 29.3533C34.0667 28.6667 35.9333 28.6667 39.6667 28.6667H48.3333C52.0667 28.6667 53.9333 28.6667 55.36 29.3533C56.615 29.9567 57.6333 30.92 58.2733 32.1033C59 33.4533 59 35.2167 59 38.7417V46.9283C59 50.4533 59 52.2167 58.2733 53.5633C57.6163 54.7645 56.5967 55.7275 55.36 56.315C53.9333 57 52.0667 57 48.3333 57H39.6667C35.9333 57 34.0667 57 32.64 56.3133C31.4036 55.7263 30.384 54.7639 29.7267 53.5633C29 52.2133 29 50.45 29 46.925V38.74Z" stroke="#67BEA5" stroke-linecap="round" stroke-linejoin="round"/>
<path d="M45.3945 41.5156V50H43.8594V43.0039H43.8125L41.832 44.2695V42.875L43.9297 41.5156H45.3945Z" fill="white"/>
</g>
<path d="M31.9062 93.4961V96.1562H33.418V97.0703H31.9062V99.6953H30.7812V93.4961H31.9062ZM28.5078 99.8945C30.6523 99.8945 31.9883 100.645 31.9883 101.934C31.9883 103.223 30.6523 103.984 28.5078 103.973C26.3398 103.984 24.9805 103.223 24.9805 101.934C24.9805 100.645 26.3398 99.8945 28.5078 99.8945ZM28.5078 100.797C26.9844 100.785 26.0703 101.207 26.082 101.934C26.0703 102.66 26.9844 103.082 28.5078 103.082C29.9961 103.082 30.9102 102.66 30.9219 101.934C30.9102 101.207 29.9961 100.785 28.5078 100.797ZM28.7773 94.2695V95.1719H25.1914V98.0312C27.2598 98.0254 28.4258 97.9609 29.75 97.6914L29.8555 98.5938C28.4492 98.8867 27.1953 98.9336 24.9219 98.9336H24.0898V94.2695H28.7773ZM36.9922 93.8477C38.5742 93.8594 39.7344 94.832 39.7461 96.2031C39.7344 97.5859 38.5742 98.5469 36.9922 98.5469C35.3984 98.5469 34.2266 97.5859 34.2266 96.2031C34.2266 94.832 35.3984 93.8594 36.9922 93.8477ZM36.9922 94.7852C36.0195 94.7734 35.3047 95.3477 35.3164 96.2031C35.3047 97.0703 36.0195 97.6445 36.9922 97.6445C37.9531 97.6445 38.668 97.0703 38.668 96.2031C38.668 95.3477 37.9531 94.7734 36.9922 94.7852ZM42.7227 93.4961V98.8398H41.6094V93.4961H42.7227ZM42.7227 99.3203V101.969H36.9336V102.977H43.0742V103.867H35.8555V101.137H41.6211V100.211H35.8203V99.3203H42.7227ZM53.082 93.4961V103.996H51.9688V93.4961H53.082ZM48.3359 96.8711C48.3359 98.5469 49.4492 100.258 51.0781 100.949L50.4688 101.805C49.2617 101.277 48.2949 100.188 47.8086 98.8633C47.334 100.264 46.3848 101.43 45.1602 101.98L44.5391 101.125C46.168 100.398 47.2461 98.6289 47.2461 96.8711V96.1797H44.8555V95.2891H47.2344V93.707H48.3359V95.2891H50.6914V96.1797H48.3359V96.8711ZM63.4883 93.4961V103.996H62.3633V93.4961H63.4883ZM60.3594 94.6211C60.3594 97.6914 59.0469 100.363 55.4492 102.086L54.8633 101.184C57.6582 99.8535 59.0176 97.9609 59.2344 95.5117H55.3672V94.6211H60.3594Z" fill="#606060"/>
<defs>
<filter id="filter0_d_805_1664" x="0" y="0" width="90" height="90" filterUnits="userSpaceOnUse" color-interpolation-filters="sRGB">
<feFlood flood-opacity="0" result="BackgroundImageFix"/>
<feColorMatrix in="SourceAlpha" type="matrix" values="0 0 0 0 0 0 0 0 0 0 0 0 0 0 0 0 0 0 127 0" result="hardAlpha"/>
<feOffset dx="1" dy="3"/>
<feGaussianBlur stdDeviation="2.5"/>
<feComposite in2="hardAlpha" operator="out"/>
<feColorMatrix type="matrix" values="0 0 0 0 0 0 0 0 0 0 0 0 0 0 0 0 0 0 0.08 0"/>
<feBlend mode="normal" in2="BackgroundImageFix" result="effect1_dropShadow_805_1664"/>
<feBlend mode="normal" in="SourceGraphic" in2="effect1_dropShadow_805_1664" result="shape"/>
</filter>
</defs>
</svg>
