<svg width="60" height="60" viewBox="0 0 60 60" fill="none" xmlns="http://www.w3.org/2000/svg">
<rect width="60" height="60" rx="30" fill="#F8F8F8"/>
<path fill-rule="evenodd" clip-rule="evenodd" d="M29.375 18.375C29.6734 18.375 29.9595 18.4935 30.1705 18.7045C30.3815 18.9155 30.5 19.2016 30.5 19.5V33C30.5 33.2984 30.3815 33.5845 30.1705 33.7955C29.9595 34.0065 29.6734 34.125 29.375 34.125C29.0766 34.125 28.7905 34.0065 28.5795 33.7955C28.3685 33.5845 28.25 33.2984 28.25 33V19.5C28.25 19.2016 28.3685 18.9155 28.5795 18.7045C28.7905 18.4935 29.0766 18.375 29.375 18.375Z" fill="#C8C8C8"/>
<path d="M31.25 39.375C31.25 39.8723 31.0525 40.3492 30.7008 40.7008C30.3492 41.0525 29.8723 41.25 29.375 41.25C28.8777 41.25 28.4008 41.0525 28.0492 40.7008C27.6975 40.3492 27.5 39.8723 27.5 39.375C27.5 38.8777 27.6975 38.4008 28.0492 38.0492C28.4008 37.6975 28.8777 37.5 29.375 37.5C29.8723 37.5 30.3492 37.6975 30.7008 38.0492C31.0525 38.4008 31.25 38.8777 31.25 39.375Z" fill="#C8C8C8"/>
</svg>
