<svg width="358" height="160" viewBox="0 0 358 160" fill="none" xmlns="http://www.w3.org/2000/svg">
<path d="M5.8262 1.01015L5.83316 1.0102L273.185 1.01017H273.187C274.199 1.00854 275.182 1.30779 276.001 1.86108C276.819 2.4137 277.43 3.19029 277.758 4.07808C278.616 6.44208 280.199 8.49515 282.291 9.97268C284.383 11.4506 286.889 12.2854 289.48 12.3729L289.497 12.3734H289.513H289.514H289.515H289.516H289.517H289.517H289.518H289.519H289.52H289.521H289.521H289.522H289.523H289.524H289.525H289.526H289.526H289.527H289.528H289.529H289.53H289.53H289.531H289.532H289.533H289.534H289.534H289.535H289.536H289.537H289.538H289.539H289.539H289.54H289.541H289.542H289.543H289.543H289.544H289.545H289.546H289.547H289.547H289.548H289.549H289.55H289.551H289.552H289.552H289.553H289.554H289.555H289.556H289.556H289.557H289.558H289.559H289.56H289.561H289.561H289.562H289.563H289.564H289.565H289.565H289.566H289.567H289.568H289.569H289.57H289.57H289.571H289.572H289.573H289.574H289.574H289.575H289.576H289.577H289.578H289.579H289.579H289.58H289.581H289.582H289.583H289.584H289.584H289.585H289.586H289.587H289.588H289.588H289.589H289.59H289.591H289.592H289.593H289.593H289.594H289.595H289.596H289.597H289.597H289.598H289.599H289.6H289.601H289.602H289.602H289.603H289.604H289.605H289.606H289.607H289.607H289.608H289.609H289.61H289.611H289.612H289.612H289.613H289.614H289.615H289.616H289.616H289.617H289.618H289.619H289.62H289.621H289.621H289.622H289.623H289.624H289.625H289.626H289.626H289.627H289.628H289.629H289.63H289.631H289.631H289.632H289.633H289.634H289.635H289.636H289.636H289.637H289.638H289.639H289.64H289.641H289.641H289.642H289.643H289.644H289.645H289.645H289.646H289.647H289.648H289.649H289.65H289.65H289.651H289.652H289.653H289.654H289.655H289.655H289.656H289.657H289.658H289.659H289.66H289.66H289.661H289.662H289.663H289.664H289.665H289.665H289.666H289.667H289.668H289.669H289.67H289.67H289.671H289.672H289.673H289.674H289.675H289.675H289.676H289.677H289.678H289.679H289.68H289.68H289.681H289.682H289.683H289.684H289.685H289.685H289.686H289.687H289.688H289.689H289.69H289.69H289.691H289.692H289.693H289.694H289.695H289.696H289.696H289.697H289.698H289.699H289.7H289.701H289.701H289.702H289.703H289.704H289.705H289.706H289.706H289.707H289.708H289.709H289.71H289.711H289.711H289.712H289.713H289.714H289.715H289.716H289.716H289.717H289.718H289.719H289.72H289.721H289.722H289.722H289.723H289.724H289.725H289.726H289.727H289.727H289.728H289.729H289.73H289.731H289.732H289.732H289.733H289.734H289.735H289.736H289.737H289.737H289.738H289.739H289.74H289.741H289.742H289.743H289.743H289.744H289.745H289.746H289.747H289.748H289.748H289.749H289.75H289.751H289.752H289.753H289.753H289.754H289.755H289.756H289.757H289.758H289.759H289.759H289.76H289.761H289.762H289.763H289.764H289.764H289.765H289.766H289.767H289.768H289.769H289.769H289.77H289.771H289.772H289.773H289.774H289.775H289.775H289.776H289.777H289.778H289.779H289.78H289.78H289.781H289.782H289.783H289.784H289.785H289.786H289.786H289.787H289.788H289.789H289.79H289.791H289.791H289.792H289.793H289.794H289.795H289.796H289.797H289.797H289.798H289.799H289.8H289.801H289.802H289.802H289.803H289.804H289.805H289.806H289.807H289.808H289.808H289.809H289.81H289.811H289.812H289.813H289.813H289.814H289.815H289.816H289.817H289.818H289.819H289.819H289.82H289.821H289.822H289.823H289.824H289.824H289.825H289.826H289.827H289.828H289.829H289.83H289.83H289.831H289.832H289.833H289.834H289.835H289.835H289.836H289.837H289.838H289.839H289.84H289.841H289.841H289.842H289.843H289.844H289.845H289.846H289.846H289.847H289.848H289.849H289.85H289.851H289.852H289.852H289.853H289.854H289.855H289.856H289.857H289.858H289.858H289.859H289.86H289.861H289.862H289.863H289.863H289.864H289.865H289.866H289.867H289.868H289.869H289.869H289.87H289.871H289.872H289.873H289.874H289.875H289.875H289.876H289.877H289.878H289.879H289.88H289.88H289.881H289.882H289.883H289.884H289.885H289.886H289.886H289.887H289.888H289.889H289.89H289.891H289.891H289.892H289.893H289.894H289.895H289.896H289.897H289.897H289.898H289.899H289.9H289.901H289.902H289.903H289.903H289.904H289.905H289.906H289.907H289.908H289.908H289.909H289.91H289.911H289.912H289.913H289.914H289.914H289.915H289.916H289.917H289.918H289.919H289.92H289.92H289.921H289.922H289.923H289.924H289.925H289.925H289.926H289.927H289.928H289.929H289.93H289.931H289.931H289.932H289.933H289.934H289.935H289.936H289.937H289.937H289.938H289.939H289.94H289.941H289.941L5.8262 1.01015ZM5.8262 1.01015C5.00037 1.00441 4.18848 1.1987 3.46664 1.57241C2.71286 1.97473 2.09045 2.55876 1.65903 3.25985C1.22696 3.96201 1.00079 4.75792 1 5.56583V154.418V154.419C0.999603 155.013 1.12161 155.602 1.36029 156.154C1.59897 156.705 1.95035 157.21 2.39655 157.636C2.84283 158.063 3.37506 158.404 3.96399 158.637C4.55298 158.87 5.18567 158.99 5.8255 158.99H5.82608H273.185H273.187C274.199 158.992 275.183 158.693 276.002 158.14C276.82 157.587 277.43 156.81 277.757 155.923L5.8262 1.01015ZM306.697 1L306.698 1L352.174 1H352.175C352.814 0.99963 353.447 1.11993 354.036 1.35303C354.625 1.5861 355.157 1.92682 355.603 2.35363C356.05 2.78034 356.401 3.2845 356.64 3.83608C356.878 4.38756 357 4.97696 357 5.57099L357 5.57162L357 154.428V154.429C357 155.023 356.878 155.612 356.64 156.164L357.557 156.561L356.64 156.164C356.401 156.715 356.05 157.22 355.603 157.646L356.295 158.369L355.603 157.646C355.157 158.073 354.625 158.414 354.036 158.647C353.447 158.88 352.814 159 352.175 159H352.174H306.698H306.696C305.685 159.002 304.703 158.702 303.885 158.149C303.069 157.597 302.459 156.82 302.133 155.933C302.133 155.933 302.133 155.932 302.133 155.932L301.194 156.277C300.381 154.042 298.861 152.104 296.845 150.733C294.829 149.363 292.416 148.626 289.942 148.627L306.697 1ZM306.697 1C305.686 0.999129 304.704 1.29872 303.886 1.85191C303.07 2.4044 302.46 3.18043 302.133 4.06737C301.247 6.50394 299.592 8.6082 297.407 10.0935C295.222 11.5789 292.613 12.3739 289.942 12.3734L306.697 1ZM352.174 160H306.698H352.174Z" stroke="#71C9B0" stroke-width="2"/>
<line x1="290.012" y1="143.002" x2="290.012" y2="19.9979" stroke="#71C9B0" stroke-dasharray="8 8"/>
</svg>
