<svg width="24" height="24" viewBox="0 0 24 24" fill="none" xmlns="http://www.w3.org/2000/svg">
<path d="M12.3 20.9949C12.4674 21.2993 12.7134 21.5531 13.0125 21.7299C13.3115 21.9067 13.6526 22 14 22C14.3474 22 14.6885 21.9067 14.9875 21.7299C15.2866 21.5531 15.5326 21.2993 15.7 20.9949M8 7.9984C8 6.40753 8.63214 4.88181 9.75736 3.75689C10.8826 2.63197 12.4087 2 14 2C15.5913 2 17.1174 2.63197 18.2426 3.75689C19.3679 4.88181 20 6.40753 20 7.9984C20 14.9965 23 16.996 23 16.996H5C5 16.996 8 14.9965 8 7.9984Z" stroke="white" stroke-width="2" stroke-linecap="round" stroke-linejoin="round"/>
</svg>
