<svg width="24" height="24" viewBox="0 0 24 24" fill="none" xmlns="http://www.w3.org/2000/svg">
<path d="M19.1831 21H4.81687C4.31737 21 3.88987 20.8219 3.53437 20.4656C3.17887 20.1094 3.00075 19.6822 3 19.1842V4.81687C3 4.31737 3.17812 3.88987 3.53437 3.53437C3.89062 3.17887 4.31812 3.00075 4.81687 3H19.1831C19.6826 3 20.1101 3.17812 20.4656 3.53437C20.8211 3.89062 20.9993 4.31812 21 4.81687V19.1831C21 19.6826 20.8219 20.1101 20.4656 20.4656C20.1094 20.8211 19.6819 20.9993 19.1831 21ZM19.0099 17.2357H4.99013V19.2686H19.0099V17.2357ZM4.99013 16.2401H19.0099V14.2061H4.99013V16.2401ZM4.99013 12.9517H19.0099V4.99125H4.99013V12.9517Z" fill="currentColor"/>
</svg>
