<svg width="24" height="24" viewBox="0 0 24 24" fill="none" xmlns="http://www.w3.org/2000/svg">
<path d="M14.999 21V13C14.999 12.7348 14.8937 12.4804 14.7061 12.2929C14.5186 12.1054 14.2642 12 13.999 12H9.99902C9.73381 12 9.47945 12.1054 9.29192 12.2929C9.10438 12.4804 8.99902 12.7348 8.99902 13V21" stroke="currentColor" stroke-width="2" stroke-linecap="round" stroke-linejoin="round"/>
<path d="M2.99902 10.0005C2.99895 9.70952 3.06236 9.42208 3.18481 9.15817C3.30727 8.89427 3.48582 8.66025 3.70802 8.47246L10.708 2.47346C11.069 2.16836 11.5264 2.00098 11.999 2.00098C12.4717 2.00098 12.929 2.16836 13.29 2.47346L20.29 8.47246C20.5122 8.66025 20.6908 8.89427 20.8132 9.15817C20.9357 9.42208 20.9991 9.70952 20.999 10.0005V19.0005C20.999 19.5309 20.7883 20.0396 20.4132 20.4147C20.0382 20.7897 19.5295 21.0005 18.999 21.0005H4.99902C4.46859 21.0005 3.95988 20.7897 3.58481 20.4147C3.20974 20.0396 2.99902 19.5309 2.99902 19.0005V10.0005Z" stroke="currentColor" stroke-width="2" stroke-linecap="round" stroke-linejoin="round"/>
</svg>
