<svg width="24" height="24" viewBox="0 0 24 24" fill="none" xmlns="http://www.w3.org/2000/svg">
<path d="M18.0017 20C18.0017 18.4087 17.3696 16.8826 16.2444 15.7574C15.1191 14.6321 13.593 14 12.0017 14C10.4104 14 8.88429 14.6321 7.75907 15.7574C6.63385 16.8826 6.00171 18.4087 6.00171 20" stroke="currentColor" stroke-width="2" stroke-linecap="round" stroke-linejoin="round"/>
<path d="M12.0017 14C14.2108 14 16.0017 12.2091 16.0017 10C16.0017 7.79086 14.2108 6 12.0017 6C9.79257 6 8.00171 7.79086 8.00171 10C8.00171 12.2091 9.79257 14 12.0017 14Z" stroke="currentColor" stroke-width="2" stroke-linecap="round" stroke-linejoin="round"/>
<path d="M12.0017 22C17.5246 22 22.0017 17.5228 22.0017 12C22.0017 6.47715 17.5246 2 12.0017 2C6.47886 2 2.00171 6.47715 2.00171 12C2.00171 17.5228 6.47886 22 12.0017 22Z" stroke="currentColor" stroke-width="2" stroke-linecap="round" stroke-linejoin="round"/>
</svg>
