<svg width="24" height="24" viewBox="0 0 24 24" fill="none" xmlns="http://www.w3.org/2000/svg">
<path fill-rule="evenodd" clip-rule="evenodd" d="M12.5932 23.2579L12.5822 23.2599L12.5112 23.2949L12.4912 23.2989L12.4772 23.2949L12.4062 23.2599C12.3955 23.2566 12.3875 23.2583 12.3822 23.2649L12.3782 23.2749L12.3612 23.7029L12.3662 23.7229L12.3762 23.7359L12.4802 23.8099L12.4952 23.8139L12.5072 23.8099L12.6112 23.7359L12.6232 23.7199L12.6272 23.7029L12.6102 23.2759C12.6075 23.2653 12.6018 23.2593 12.5932 23.2579ZM12.8582 23.1449L12.8452 23.1469L12.6602 23.2399L12.6502 23.2499L12.6472 23.2609L12.6652 23.6909L12.6702 23.7029L12.6782 23.7099L12.8792 23.8029C12.8918 23.8063 12.9015 23.8036 12.9082 23.7949L12.9122 23.7809L12.8782 23.1669C12.8748 23.1549 12.8682 23.1476 12.8582 23.1449ZM12.1432 23.1469C12.1388 23.1443 12.1335 23.1434 12.1285 23.1445C12.1234 23.1456 12.119 23.1487 12.1162 23.1529L12.1102 23.1669L12.0762 23.7809C12.0768 23.7929 12.0825 23.8009 12.0932 23.8049L12.1082 23.8029L12.3092 23.7099L12.3192 23.7019L12.3232 23.6909L12.3402 23.2609L12.3372 23.2489L12.3272 23.2389L12.1432 23.1469Z" fill="currentColor"/>
<path fill-rule="evenodd" clip-rule="evenodd" d="M8.08409 2.6C8.24609 2.235 8.60709 2 9.00709 2H16.9841C17.7341 2 18.2231 2.79 17.8871 3.462L15.6181 8H18.9761C19.8761 8 20.3261 9.088 19.6901 9.724L7.73709 21.677C6.98309 22.431 5.72709 21.655 6.06509 20.644L8.61309 13H5.01509C4.84683 13 4.68125 12.958 4.53336 12.8777C4.38548 12.7974 4.26 12.6815 4.1683 12.5404C4.0766 12.3994 4.0216 12.2376 4.00829 12.0699C3.99498 11.9022 4.02379 11.7338 4.09209 11.58L8.08409 2.6Z" fill="currentColor"/>
</svg>
