<svg width="60" height="60" viewBox="0 0 60 60" fill="none" xmlns="http://www.w3.org/2000/svg">
<rect width="60" height="60" rx="30" fill="#F8F8F8"/>
<path d="M29.9997 16.6666C24.3997 16.6666 19.333 20.96 19.333 27.6C19.333 31.84 22.5997 36.8266 29.1197 42.5733C29.6263 43.0133 30.3863 43.0133 30.893 42.5733C37.3997 36.8266 40.6663 31.84 40.6663 27.6C40.6663 20.96 35.5997 16.6666 29.9997 16.6666ZM29.9997 30C28.533 30 27.333 28.8 27.333 27.3333C27.333 25.8666 28.533 24.6666 29.9997 24.6666C31.4663 24.6666 32.6663 25.8666 32.6663 27.3333C32.6663 28.8 31.4663 30 29.9997 30Z" fill="#C8C8C8"/>
</svg>
